HIERARCHY
ROOT ui
{
	 OFFSET 0 0 0
	 CHANNELS 3 XPosition YPosition Z Position
	 EndSite
	 {
	 OFFSET 0 -1 0
	 }
}
ROOT li
{
	 OFFSET 0 0 0
	 CHANNELS 3 XPosition YPosition Z Position
	 EndSite
	 {
	 OFFSET 0 -1 0
	 }
}
ROOT ul
{
	 OFFSET 0 0 0
	 CHANNELS 3 XPosition YPosition Z Position
	 EndSite
	 {
	 OFFSET 0 -1 0
	 }
}
ROOT ll
{
	 OFFSET 0 0 0
	 CHANNELS 3 XPosition YPosition Z Position
	 EndSite
	 {
	 OFFSET 0 -1 0
	 }
}
ROOT tt
{
	 OFFSET 0 0 0
	 CHANNELS 3 XPosition YPosition Z Position
	 EndSite
	 {
	 OFFSET 0 -1 0
	 }
}
ROOT tb
{
	 OFFSET 0 0 0
	 CHANNELS 3 XPosition YPosition Z Position
	 EndSite
	 {
	 OFFSET 0 -1 0
	 }
}
ROOT td
{
	 OFFSET 0 0 0
	 CHANNELS 3 XPosition YPosition Z Position
	 EndSite
	 {
	 OFFSET 0 -1 0
	 }
}
ROOT v
{
	 OFFSET 0 0 0
	 CHANNELS 3 XPosition YPosition Z Position
	 EndSite
	 {
	 OFFSET 0 -1 0
	 }
}
ROOT bn
{
	 OFFSET 0 0 0
	 CHANNELS 3 XPosition YPosition Z Position
	 EndSite
	 {
	 OFFSET 0 -1 0
	 }
}
MOTION
Frames: 19
Frame Time: 0.002
-0.03920351791381836	-0.0010247520208358765	0		0.5513666381835938	-2.559306396484375	0		-1.081593994140625	-0.15488221740722657	0		-0.6195355834960937	-2.543029296875	0		2.728311279296875	-2.119395263671875	0		3.8728876953125	-0.805389892578125	0		4.91849072265625	-0.09277804565429687	0		6.00732080078125	0.48792721557617186	0		-0.24563209533691407	5.87601318359375	0		
0.04008331298828125	-0.002743916034698486	0		0.58932421875	-2.593673095703125	0		-1.2012755126953125	-0.15183525085449218	0		-0.68230126953125	-2.54549072265625	0		2.69362158203125	-2.11415625	0		3.8911904296875	-0.8036350708007812	0		4.906791015625	-0.0927728271484375	0		6.007626953125	0.48780642700195315	0		-0.22917021179199218	5.88385107421875	0		
-0.03153837203979492	0.005867621898651123	0		0.5877440795898438	-2.57568798828125	0		-1.1400106201171876	-0.15637387084960938	0		-0.6040510864257812	-2.54718798828125	0		2.719828369140625	-2.121452392578125	0		3.907375732421875	-0.8158630981445313	0		4.92200830078125	-0.10300593566894531	0		6.01286083984375	0.4786393737792969	0		-0.22678329467773437	5.8818154296875	0		
0.044730243682861326	0.0011799319982528686	0		0.5561906127929688	-2.5544345703125	0		-1.1606793212890625	-0.1531853790283203	0		-0.68379638671875	-2.54748828125	0		2.74311328125	-2.11972265625	0		3.91876416015625	-0.8050493774414063	0		4.92939501953125	-0.09417161560058594	0		6.01317626953125	0.4785123291015625	0		-0.2273605194091797	5.88281103515625	0		
-0.03799042129516601	-0.0010995429754257202	0		0.5791495361328125	-2.587660888671875	0		-1.084418212890625	-0.1578475799560547	0		-0.6156532592773437	-2.5600888671875	0		2.751293701171875	-2.128860595703125	0		3.896927734375	-0.8189451293945312	0		4.92563720703125	-0.10124303436279297	0		6.008568359375	0.48742361450195315	0		-0.24202880859375	5.872935546875	0		
-0.010699240684509278	-0.00134676194190979	0		0.5793848876953125	-2.58768212890625	0		-1.1912049560546876	-0.1658829345703125	0		-0.6913877563476563	-2.556409912109375	0		2.7515390625	-2.1289296875	0		3.92013916015625	-0.8262431030273437	0		4.93692138671875	-0.10245307922363281	0		6.01379150390625	0.4782388916015625	0		-0.24061628723144532	5.87192333984375	0		
-0.01042141628265381	-0.001350640058517456	0		0.5895277709960938	-2.5957890625	0		-1.1509327392578126	-0.166213623046875	0		-0.6363792724609375	-2.579885498046875	0		2.720828369140625	-2.121725830078125	0		3.937271484375	-0.8404940185546875	0		4.94312890625	-0.11062637329101563	0		6.010009765625	0.4701231994628906	0		-0.27226437377929685	5.8642099609375	0		
-0.007131980895996094	0.001623291015625	0		0.5907374877929688	-2.593813720703125	0		-1.1866373291015626	-0.16186065673828126	0		-0.6751764526367188	-2.57851953125	0		2.758049560546875	-2.1201298828125	0		3.9266455078125	-0.8255034790039063	0		4.943392578125	-0.11075541687011718	0		6.01435693359375	0.4779235534667969	0		-0.237798095703125	5.86891455078125	0		
0.04611509323120117	0.0011546200513839722	0		0.606943359375	-2.589969482421875	0		-1.150430419921875	-0.1661413116455078	0		-0.6050975952148437	-2.589119873046875	0		2.725271728515625	-2.115912353515625	0		3.94463623046875	-0.8517767944335938	0		4.950580078125	-0.11795573425292968	0		6.01462060546875	0.4777471923828125	0		-0.2222735595703125	5.87979248046875	0		
-0.006647202968597412	0.0016400120258331298	0		0.5780940551757813	-2.58971826171875	0		-1.1502003173828126	-0.16609237670898438	0		-0.6000830078125	-2.60413330078125	0		2.756372802734375	-2.1232705078125	0		3.965905517578125	-0.8450860595703125	0		4.93575439453125	-0.12496770477294922	0		6.00995263671875	0.48660275268554687	0		-0.2359500274658203	5.86793701171875	0		
0.036469955444335934	-0.009731202125549317	0		0.6110817260742187	-2.605020263671875	0		-1.1580601806640625	-0.1739622497558594	0		-0.66903759765625	-2.612472900390625	0		2.725578369140625	-2.116074951171875	0		3.937049072265625	-0.8499517822265625	0		4.94883740234375	-0.1402398223876953	0		6.0101884765625	0.4864011535644531	0		-0.23551950073242187	5.86796142578125	0		
-0.03626200866699219	-0.0010499030351638794	0		0.5592379760742188	-2.5975517578125	0		-1.1838458251953126	-0.17065969848632812	0		-0.5949954833984376	-2.61809521484375	0		2.7524970703125	-2.13740380859375	0		3.93416357421875	-0.8550572509765625	0		4.9530849609375	-0.1344409637451172	0		6.01531884765625	0.47714208984375	0		-0.23212364196777344	5.86496533203125	0		
0.04994685363769531	0.004197163105010986	0		0.6012479248046875	-2.601928955078125	0		-1.1777408447265625	-0.17563548278808594	0		-0.6599911499023438	-2.622449462890625	0		2.7277021484375	-2.1222646484375	0		3.96908349609375	-0.8775125732421875	0		4.942107421875	-0.1495125274658203	0		6.0154970703125	0.4769164123535156	0		-0.25068069458007813	5.8691767578125	0		
-0.03295632553100586	0.002991318941116333	0		0.58827880859375	-2.59780029296875	0		-1.149547119140625	-0.16580169677734374	0		-0.5941290893554687	-2.63698583984375	0		2.736790283203125	-2.11443359375	0		3.941430908203125	-0.8474000854492187	0		4.95623681640625	-0.14781802368164063	0		6.0156298828125	0.47668148803710936	0		-0.2313412322998047	5.86505126953125	0		
-0.008941047668457032	-0.0011807769536972047	0		0.5841613159179687	-2.60274462890625	0		-1.1956473388671875	-0.18127601623535156	0		-0.6871435546875	-2.630055419921875	0		2.721779296875	-2.11038037109375	0		3.94414892578125	-0.879568603515625	0		4.9522255859375	-0.1549623260498047	0		6.01163232421875	0.468476806640625	0		-0.23002529907226563	5.86310009765625	0		
-0.039983497619628904	-0.0038361010551452635	0		0.5919119262695313	-2.613790283203125	0		-1.155674072265625	-0.1815280303955078	0		-0.5995827026367188	-2.661775634765625	0		2.735665283203125	-2.10958984375	0		3.94408837890625	-0.879710205078125	0		4.94814453125	-0.16210743713378906	0		6.01164013671875	0.4682308349609375	0		-0.22974534606933594	5.86316943359375	0		
-0.009047648429870606	-0.0010533080101013184	0		0.5916837768554688	-2.613752197265625	0		-1.1957724609375	-0.18102616882324218	0		-0.6618385620117188	-2.664098388671875	0		2.693623779296875	-2.09227490234375	0		3.9598115234375	-0.8949968872070313	0		4.94398876953125	-0.1692508239746094	0		5.99864892578125	0.4761039733886719	0		-0.22953648376464844	5.86225048828125	0		
-0.006184932231903076	0.0020010769367218018	0		0.593404296875	-2.61072119140625	0		-1.0829150390625	-0.17793603515625	0		-0.5942639770507813	-2.67661572265625	0		2.685475830078125	-2.078265380859375	0		3.941841552734375	-0.8689632568359374	0		4.94770068359375	-0.18246395874023438	0		6.0114345703125	0.4677381286621094	0		-0.21229893493652344	5.871185546875	0		
-0.00642075777053833	0.0020981171131134032	0		0.5909942626953125	-2.613638671875	0		-1.10009423828125	-0.17061917114257813	0		-0.5918002319335938	-2.692513427734375	0		2.693245849609375	-2.06539453125	0		3.937359619140625	-0.89004833984375	0		4.9535380859375	-0.17468943786621094	0		6.0152998046875	0.4754608154296875	0		-0.24726161193847657	5.86562353515625	0		
